<?xml version="1.0" encoding="utf-8"?>
<!-- Generator: Adobe Illustrator 21.0.2, SVG Export Plug-In . SVG Version: 6.00 Build 0)  -->
<svg version="1.1" id="Layer_1" xmlns="http://www.w3.org/2000/svg" xmlns:xlink="http://www.w3.org/1999/xlink" x="0px" y="0px"
	 viewBox="0 0 66 38" style="enable-background:new 0 0 66 38;" xml:space="preserve">
<style type="text/css">
	.st0{fill:#515151;}
</style>
<path class="st0" d="M64.9,3.9l-3.3-3.3C61.2,0.2,60.7,0,60.1,0c-0.6,0-1.1,0.2-1.5,0.7L33,26.3L7.4,0.6C6.9,0.2,6.4,0,5.9,0
	C5.3,0,4.8,0.2,4.4,0.6L1.1,3.9C0.7,4.3,0.5,4.8,0.5,5.4s0.2,1.1,0.7,1.5l30.4,30.4c0.4,0.4,0.9,0.7,1.5,0.7s1.1-0.2,1.5-0.7
	L64.9,6.9c0.4-0.4,0.6-0.9,0.6-1.5S65.3,4.3,64.9,3.9L64.9,3.9z"/>
</svg>
