<?xml version="1.0" encoding="utf-8"?>
<!-- Generator: Adobe Illustrator 21.0.2, SVG Export Plug-In . SVG Version: 6.00 Build 0)  -->
<svg version="1.1" id="Layer_1" xmlns="http://www.w3.org/2000/svg" xmlns:xlink="http://www.w3.org/1999/xlink" x="0px" y="0px"
	 viewBox="0 0 255 38" style="enable-background:new 0 0 255 38;" xml:space="preserve">
<style type="text/css">
	.st0{clip-path:url(#SVGID_2_);fill:#92D864;}
	.st1{fill:#515151;}
	.st2{font-family:'Roboto-Bold';}
	.st3{font-size:29px;}
</style>
<g>
	<g>
		<g>
			<defs>
				<rect id="SVGID_1_" x="0.2" y="0.4" width="55" height="37.1"/>
			</defs>
			<clipPath id="SVGID_2_">
				<use xlink:href="#SVGID_1_"  style="overflow:visible;"/>
			</clipPath>
			<path class="st0" d="M50.2,6.9C43-5,32,3.2,32,3.2c-0.7,0.5-2,1-2.9,1h-2.9c-0.9,0-2.2-0.4-2.9-1c0,0-10.9-8.3-18.2,3.6
				c-7.3,11.9-4.3,24.9-4.3,24.9c0.5,3.2,2.2,5.3,5.4,5c3.2-0.3,10.1-8.6,10.1-8.6c0.6-0.7,1.8-1.2,2.6-1.2l17.6,0
				c0.9,0,2.1,0.6,2.6,1.2c0,0,6.9,8.3,10.1,8.6c3.2,0.3,4.9-1.9,5.4-5C54.5,31.8,57.5,18.8,50.2,6.9L50.2,6.9z M21.1,16.6h-3.8v3.6
				c0,0-0.8,0.6-2,0.6c-1.2,0-1.8-0.7-1.8-0.7v-3.6H9.9c0,0-0.4-0.5-0.6-1.7c-0.1-1.2,0.5-2.2,0.5-2.2h3.8V9c0,0,0.8-0.4,1.9-0.4
				c1.1,0,1.9,0.5,1.9,0.5l0,3.7H21c0,0,0.6,0.8,0.7,1.8C21.7,15.5,21.1,16.6,21.1,16.6L21.1,16.6z M38.3,20.7c-1.7,0-3-1.3-3-3
				c0-1.6,1.3-3,3-3c1.6,0,3,1.3,3,3C41.3,19.4,40,20.7,38.3,20.7L38.3,20.7z M38.3,12.5c-1.7,0-3-1.3-3-3c0-1.7,1.3-3,3-3
				c1.6,0,3,1.3,3,3C41.3,11.2,40,12.5,38.3,12.5L38.3,12.5z M45.7,16.9c-1.6,0-3-1.3-3-3c0-1.6,1.3-3,3-3c1.6,0,3,1.3,3,3
				C48.7,15.6,47.4,16.9,45.7,16.9L45.7,16.9z M45.7,16.9"/>
		</g>
	</g>
	<text transform="matrix(1 0 0 1 71.2339 28.4489)" class="st1 st2 st3">DaGamesNow</text>
</g>
</svg>
